<svg width="16" height="12" viewBox="0 0 16 12" fill="none" xmlns="http://www.w3.org/2000/svg">
<path id="Vector" d="M8.80581 0.275259C8.86444 0.321335 8.91852 0.372346 8.96736 0.427661L11.3571 3.13291L13.9932 1.29656C14.2017 1.15126 14.4527 1.07024 14.7119 1.06455C14.971 1.05887 15.2257 1.12879 15.4412 1.26478C15.6566 1.40077 15.8223 1.59619 15.9156 1.82435C16.0089 2.05251 16.0253 2.30227 15.9625 2.53953L13.4552 12H2.54502L0.0377702 2.53993C-0.0252821 2.30261 -0.00909652 2.05271 0.084114 1.8244C0.177324 1.59609 0.34301 1.40051 0.558519 1.2644C0.774028 1.12829 1.02884 1.05829 1.28812 1.06398C1.5474 1.06966 1.79849 1.15075 2.00706 1.29616L4.64314 3.13291L7.0329 0.427661C7.13871 0.307785 7.26852 0.208749 7.41491 0.13621C7.56131 0.0636707 7.72141 0.0190505 7.88609 0.00489779C8.05077 -0.00925495 8.21679 0.00733727 8.37467 0.0537265C8.53255 0.100116 8.67919 0.175393 8.80623 0.275259H8.80581ZM10.9375 8.62219H5.06276V9.88892H10.9375V8.62219Z" fill="red"/>
</svg>
